<svg width="24" height="24" viewBox="0 0 24 24" fill="none" xmlns="http://www.w3.org/2000/svg">
<path d="M20.0501 10.6296L15.3801 8.61957L14.3401 8.17957C14.1801 8.09957 14.0401 7.88957 14.0401 7.70957V4.64957C14.0401 3.68957 13.3301 2.54957 12.4701 2.10957C12.1701 1.95957 11.8101 1.95957 11.5101 2.10957C10.6601 2.54957 9.95006 3.69957 9.95006 4.65957V7.71957C9.95006 7.89957 9.81006 8.10957 9.65006 8.18957L3.95006 10.6396C3.32006 10.8996 2.81006 11.6896 2.81006 12.3696V13.6896C2.81006 14.5396 3.45006 14.9596 4.24006 14.6196L9.25006 12.4596C9.64006 12.2896 9.96006 12.4996 9.96006 12.9296V14.0396V15.8396C9.96006 16.0696 9.83006 16.3996 9.67006 16.5596L7.35006 18.8896C7.11006 19.1296 7.00006 19.5996 7.11006 19.9396L7.56006 21.2996C7.74006 21.8896 8.41006 22.1696 8.96006 21.8896L11.3401 19.8896C11.7001 19.5796 12.2901 19.5796 12.6501 19.8896L15.0301 21.8896C15.5801 22.1596 16.2501 21.8896 16.4501 21.2996L16.9001 19.9396C17.0101 19.6096 16.9001 19.1296 16.6601 18.8896L14.3401 16.5596C14.1701 16.3996 14.0401 16.0696 14.0401 15.8396V12.9296C14.0401 12.4996 14.3501 12.2996 14.7501 12.4596L19.7601 14.6196C20.5501 14.9596 21.1901 14.5396 21.1901 13.6896V12.3696C21.1901 11.6896 20.6801 10.8996 20.0501 10.6296Z" fill="white"/>
</svg>
