<svg width="20" height="21" viewBox="0 0 20 21" fill="none" xmlns="http://www.w3.org/2000/svg">
<path d="M6.66663 5.2915C6.32496 5.2915 6.04163 5.00817 6.04163 4.6665V2.1665C6.04163 1.82484 6.32496 1.5415 6.66663 1.5415C7.00829 1.5415 7.29163 1.82484 7.29163 2.1665V4.6665C7.29163 5.00817 7.00829 5.2915 6.66663 5.2915Z" fill="#333333"/>
<path d="M13.3334 5.2915C12.9917 5.2915 12.7084 5.00817 12.7084 4.6665V2.1665C12.7084 1.82484 12.9917 1.5415 13.3334 1.5415C13.675 1.5415 13.9584 1.82484 13.9584 2.1665V4.6665C13.9584 5.00817 13.675 5.2915 13.3334 5.2915Z" fill="#333333"/>
<path d="M7.08333 12.5834C6.975 12.5834 6.86667 12.5584 6.76667 12.5168C6.65833 12.4751 6.575 12.4168 6.49167 12.3418C6.34167 12.1834 6.25 11.9751 6.25 11.7501C6.25 11.6418 6.275 11.5334 6.31667 11.4334C6.35833 11.3334 6.41667 11.2418 6.49167 11.1584C6.575 11.0834 6.65833 11.0251 6.76667 10.9834C7.06667 10.8584 7.44167 10.9251 7.675 11.1584C7.825 11.3168 7.91667 11.5334 7.91667 11.7501C7.91667 11.8001 7.90833 11.8584 7.9 11.9168C7.89167 11.9668 7.875 12.0168 7.85 12.0668C7.83333 12.1168 7.80833 12.1668 7.775 12.2168C7.75 12.2584 7.70833 12.3001 7.675 12.3418C7.51667 12.4918 7.3 12.5834 7.08333 12.5834Z" fill="#333333"/>
<path d="M9.99996 12.5832C9.89163 12.5832 9.78329 12.5582 9.68329 12.5166C9.57496 12.4749 9.49163 12.4166 9.40829 12.3416C9.25829 12.1832 9.16663 11.9749 9.16663 11.7499C9.16663 11.6416 9.19163 11.5332 9.23329 11.4332C9.27496 11.3332 9.33329 11.2416 9.40829 11.1582C9.49163 11.0832 9.57496 11.0249 9.68329 10.9832C9.98329 10.8499 10.3583 10.9249 10.5916 11.1582C10.7416 11.3166 10.8333 11.5332 10.8333 11.7499C10.8333 11.7999 10.825 11.8582 10.8166 11.9166C10.8083 11.9666 10.7916 12.0166 10.7666 12.0666C10.75 12.1166 10.725 12.1666 10.6916 12.2166C10.6666 12.2582 10.625 12.2999 10.5916 12.3416C10.4333 12.4916 10.2166 12.5832 9.99996 12.5832Z" fill="#333333"/>
<path d="M12.9167 12.5832C12.8084 12.5832 12.7 12.5582 12.6 12.5166C12.4917 12.4749 12.4084 12.4166 12.325 12.3416C12.2917 12.2999 12.2584 12.2582 12.225 12.2166C12.1917 12.1666 12.1667 12.1166 12.15 12.0666C12.125 12.0166 12.1084 11.9666 12.1 11.9166C12.0917 11.8582 12.0834 11.7999 12.0834 11.7499C12.0834 11.5332 12.175 11.3166 12.325 11.1582C12.4084 11.0832 12.4917 11.0249 12.6 10.9832C12.9084 10.8499 13.275 10.9249 13.5084 11.1582C13.6584 11.3166 13.75 11.5332 13.75 11.7499C13.75 11.7999 13.7417 11.8582 13.7334 11.9166C13.725 11.9666 13.7084 12.0166 13.6834 12.0666C13.6667 12.1166 13.6417 12.1666 13.6084 12.2166C13.5834 12.2582 13.5417 12.2999 13.5084 12.3416C13.35 12.4916 13.1334 12.5832 12.9167 12.5832Z" fill="#333333"/>
<path d="M7.08333 15.5C6.975 15.5 6.86667 15.475 6.76667 15.4333C6.66667 15.3917 6.575 15.3333 6.49167 15.2583C6.34167 15.1 6.25 14.8833 6.25 14.6667C6.25 14.5583 6.275 14.45 6.31667 14.35C6.35833 14.2417 6.41667 14.15 6.49167 14.075C6.8 13.7667 7.36667 13.7667 7.675 14.075C7.825 14.2333 7.91667 14.45 7.91667 14.6667C7.91667 14.8833 7.825 15.1 7.675 15.2583C7.51667 15.4083 7.3 15.5 7.08333 15.5Z" fill="#333333"/>
<path d="M9.99996 15.5C9.78329 15.5 9.56663 15.4083 9.40829 15.2583C9.25829 15.1 9.16663 14.8833 9.16663 14.6667C9.16663 14.5583 9.19163 14.45 9.23329 14.35C9.27496 14.2417 9.33329 14.15 9.40829 14.075C9.71663 13.7667 10.2833 13.7667 10.5916 14.075C10.6666 14.15 10.725 14.2417 10.7666 14.35C10.8083 14.45 10.8333 14.5583 10.8333 14.6667C10.8333 14.8833 10.7416 15.1 10.5916 15.2583C10.4333 15.4083 10.2166 15.5 9.99996 15.5Z" fill="#333333"/>
<path d="M12.9167 15.4999C12.7 15.4999 12.4834 15.4083 12.325 15.2583C12.25 15.1833 12.1917 15.0916 12.15 14.9833C12.1084 14.8833 12.0834 14.7749 12.0834 14.6666C12.0834 14.5583 12.1084 14.4499 12.15 14.3499C12.1917 14.2416 12.25 14.1499 12.325 14.0749C12.5167 13.8833 12.8084 13.7916 13.075 13.8499C13.1334 13.8583 13.1834 13.8749 13.2334 13.8999C13.2834 13.9166 13.3334 13.9416 13.3834 13.9749C13.425 13.9999 13.4667 14.0416 13.5084 14.0749C13.6584 14.2333 13.75 14.4499 13.75 14.6666C13.75 14.8833 13.6584 15.0999 13.5084 15.2583C13.35 15.4083 13.1334 15.4999 12.9167 15.4999Z" fill="#333333"/>
<path d="M17.0833 8.70019H2.91663C2.57496 8.70019 2.29163 8.41686 2.29163 8.0752C2.29163 7.73353 2.57496 7.4502 2.91663 7.4502H17.0833C17.425 7.4502 17.7083 7.73353 17.7083 8.0752C17.7083 8.41686 17.425 8.70019 17.0833 8.70019Z" fill="#333333"/>
<path d="M13.3333 19.4582H6.66667C3.625 19.4582 1.875 17.7082 1.875 14.6665V7.58317C1.875 4.5415 3.625 2.7915 6.66667 2.7915H13.3333C16.375 2.7915 18.125 4.5415 18.125 7.58317V14.6665C18.125 17.7082 16.375 19.4582 13.3333 19.4582ZM6.66667 4.0415C4.28333 4.0415 3.125 5.19984 3.125 7.58317V14.6665C3.125 17.0498 4.28333 18.2082 6.66667 18.2082H13.3333C15.7167 18.2082 16.875 17.0498 16.875 14.6665V7.58317C16.875 5.19984 15.7167 4.0415 13.3333 4.0415H6.66667Z" fill="#333333"/>
</svg>
