<svg width="195" height="15" viewBox="0 0 195 15" fill="none" xmlns="http://www.w3.org/2000/svg">
<path d="M184.145 2.5413C181.03 -0.531299 176.024 -0.531252 172.909 2.5414L167.549 7.82837C164.435 10.9004 159.43 10.9012 156.315 7.83008L150.947 2.53811C147.832 -0.53297 142.827 -0.532207 139.713 2.53983L134.353 7.82668C131.238 10.8994 126.232 10.8994 123.117 7.82668L117.759 2.54161C114.644 -0.531126 109.638 -0.531076 106.523 2.54172L103.121 5.8973C100.007 8.96938 95.0024 8.97025 91.887 5.89923L88.477 2.53788C85.3617 -0.533094 80.3573 -0.532281 77.243 2.5397L71.8813 7.82837C68.7669 10.9004 63.7625 10.9012 60.6471 7.83007L55.2789 2.53811C52.1635 -0.532973 47.1591 -0.532209 44.0447 2.53982L38.6849 7.82668C35.5698 10.8994 30.5641 10.8994 27.449 7.82668L22.0908 2.5414C18.9757 -0.53125 13.97 -0.531296 10.8549 2.5413L0.93113 12.3297C0.418589 12.8352 0.417574 13.662 0.928871 14.1688C1.43209 14.6676 2.24298 14.6686 2.74741 14.171L10.8549 6.17354C13.97 3.10074 18.9758 3.10069 22.091 6.17343L27.449 11.4585C30.5641 14.5312 35.5698 14.5312 38.6849 11.4585L44.0447 6.17163C47.1591 3.0996 52.1636 3.09884 55.2789 6.16993L60.6471 11.4619C63.7625 14.533 68.7669 14.5322 71.8813 11.4602L77.241 6.17344C80.3562 3.10069 85.362 3.10075 88.4771 6.17356L91.885 9.53527C95.0009 12.6089 100.008 12.608 103.123 9.53333L106.523 6.17741C109.638 3.10277 114.645 3.10185 117.761 6.17535L123.117 11.4585C126.232 14.5312 131.238 14.5312 134.353 11.4585L139.713 6.17164C142.827 3.0996 147.832 3.09884 150.947 6.16992L156.315 11.4619C159.43 14.533 164.435 14.5322 167.549 11.4602L172.911 6.17151C176.025 3.09953 181.03 3.09872 184.145 6.16968L192.263 14.1715C192.767 14.6685 193.577 14.6662 194.079 14.1665C194.586 13.6606 194.584 12.8379 194.074 12.3346L184.145 2.5413Z" fill="#EF3E3E"/>
</svg>
