<svg width="20" height="21" viewBox="0 0 20 21" fill="none" xmlns="http://www.w3.org/2000/svg">
<path d="M10 12.3084C8.22502 12.3084 6.77502 10.8667 6.77502 9.08337C6.77502 7.30003 8.22502 5.8667 10 5.8667C11.775 5.8667 13.225 7.30837 13.225 9.0917C13.225 10.875 11.775 12.3084 10 12.3084ZM10 7.1167C8.91669 7.1167 8.02502 8.00003 8.02502 9.0917C8.02502 10.1834 8.90836 11.0667 10 11.0667C11.0917 11.0667 11.975 10.1834 11.975 9.0917C11.975 8.00003 11.0834 7.1167 10 7.1167Z" fill="#333333"/>
<path d="M10 19.4665C8.76669 19.4665 7.52502 18.9998 6.55836 18.0748C4.10002 15.7082 1.38336 11.9332 2.40836 7.4415C3.33336 3.3665 6.89169 1.5415 10 1.5415C10 1.5415 10 1.5415 10.0084 1.5415C13.1167 1.5415 16.675 3.3665 17.6 7.44984C18.6167 11.9415 15.9 15.7082 13.4417 18.0748C12.475 18.9998 11.2334 19.4665 10 19.4665ZM10 2.7915C7.57502 2.7915 4.45836 4.08317 3.63336 7.7165C2.73336 11.6415 5.20002 15.0248 7.43336 17.1665C8.87502 18.5582 11.1334 18.5582 12.575 17.1665C14.8 15.0248 17.2667 11.6415 16.3834 7.7165C15.55 4.08317 12.425 2.7915 10 2.7915Z" fill="#333333"/>
</svg>
