<svg width="40" height="40" viewBox="0 0 40 40" fill="none" xmlns="http://www.w3.org/2000/svg">
<rect width="40" height="40" rx="20" fill="#EF3E3E"/>
<path d="M19.9999 21.8084C18.2249 21.8084 16.7749 20.3667 16.7749 18.5834C16.7749 16.8 18.2249 15.3667 19.9999 15.3667C21.7749 15.3667 23.2249 16.8084 23.2249 18.5917C23.2249 20.375 21.7749 21.8084 19.9999 21.8084ZM19.9999 16.6167C18.9166 16.6167 18.0249 17.5 18.0249 18.5917C18.0249 19.6834 18.9082 20.5667 19.9999 20.5667C21.0916 20.5667 21.9749 19.6834 21.9749 18.5917C21.9749 17.5 21.0832 16.6167 19.9999 16.6167Z" fill="white"/>
<path d="M19.9999 28.9665C18.7666 28.9665 17.5249 28.4998 16.5582 27.5748C14.0999 25.2082 11.3832 21.4332 12.4082 16.9415C13.3332 12.8665 16.8916 11.0415 19.9999 11.0415C19.9999 11.0415 19.9999 11.0415 20.0082 11.0415C23.1166 11.0415 26.6749 12.8665 27.5999 16.9498C28.6166 21.4415 25.8999 25.2082 23.4416 27.5748C22.4749 28.4998 21.2332 28.9665 19.9999 28.9665ZM19.9999 12.2915C17.5749 12.2915 14.4582 13.5832 13.6332 17.2165C12.7332 21.1415 15.1999 24.5248 17.4332 26.6665C18.8749 28.0582 21.1332 28.0582 22.5749 26.6665C24.7999 24.5248 27.2666 21.1415 26.3832 17.2165C25.5499 13.5832 22.4249 12.2915 19.9999 12.2915Z" fill="white"/>
</svg>
