<svg width="40" height="40" viewBox="0 0 40 40" fill="none" xmlns="http://www.w3.org/2000/svg">
<rect width="40" height="40" rx="20" fill="#EF3E3E"/>
<path d="M28.3084 25.2748C28.3084 25.5748 28.2417 25.8832 28.1001 26.1832C27.9584 26.4832 27.7751 26.7665 27.5334 27.0332C27.1251 27.4832 26.6751 27.8082 26.1667 28.0165C25.6667 28.2248 25.1251 28.3332 24.5417 28.3332C23.6917 28.3332 22.7834 28.1332 21.8251 27.7248C20.8667 27.3165 19.9084 26.7665 18.9584 26.0748C18.0001 25.3748 17.0917 24.5998 16.2251 23.7415C15.3667 22.8748 14.5917 21.9665 13.9001 21.0165C13.2167 20.0665 12.6667 19.1165 12.2667 18.1748C11.8667 17.2248 11.6667 16.3165 11.6667 15.4498C11.6667 14.8832 11.7667 14.3415 11.9667 13.8415C12.1667 13.3332 12.4834 12.8665 12.9251 12.4498C13.4584 11.9248 14.0417 11.6665 14.6584 11.6665C14.8917 11.6665 15.1251 11.7165 15.3334 11.8165C15.5501 11.9165 15.7417 12.0665 15.8917 12.2832L17.8251 15.0082C17.9751 15.2165 18.0834 15.4082 18.1584 15.5915C18.2334 15.7665 18.2751 15.9415 18.2751 16.0998C18.2751 16.2998 18.2167 16.4998 18.1001 16.6915C17.9917 16.8832 17.8334 17.0832 17.6334 17.2832L17.0001 17.9415C16.9084 18.0332 16.8667 18.1415 16.8667 18.2748C16.8667 18.3415 16.8751 18.3998 16.8917 18.4665C16.9167 18.5332 16.9417 18.5832 16.9584 18.6332C17.1084 18.9082 17.3667 19.2665 17.7334 19.6998C18.1084 20.1332 18.5084 20.5748 18.9417 21.0165C19.3917 21.4582 19.8251 21.8665 20.2667 22.2415C20.7001 22.6082 21.0584 22.8582 21.3417 23.0082C21.3834 23.0248 21.4334 23.0498 21.4917 23.0748C21.5584 23.0998 21.6251 23.1082 21.7001 23.1082C21.8417 23.1082 21.9501 23.0582 22.0417 22.9665L22.6751 22.3415C22.8834 22.1332 23.0834 21.9748 23.2751 21.8748C23.4667 21.7582 23.6584 21.6998 23.8667 21.6998C24.0251 21.6998 24.1917 21.7332 24.3751 21.8082C24.5584 21.8832 24.7501 21.9915 24.9584 22.1332L27.7167 24.0915C27.9334 24.2415 28.0834 24.4165 28.1751 24.6248C28.2584 24.8332 28.3084 25.0415 28.3084 25.2748Z" stroke="white" stroke-width="1.5" stroke-miterlimit="10"/>
</svg>
