<svg width="18" height="18" viewBox="0 0 18 18" fill="none" xmlns="http://www.w3.org/2000/svg">
<path d="M13.7167 17.8918C13.2751 17.8918 12.7084 17.7501 12.0001 17.3334L9.50839 15.8584C9.25006 15.7084 8.75006 15.7084 8.50006 15.8584L6.00006 17.3334C4.52506 18.2084 3.65839 17.8584 3.26672 17.5751C2.88339 17.2918 2.28339 16.5668 2.67506 14.9001L3.26672 12.3418C3.33339 12.0751 3.20006 11.6168 3.00006 11.4168L0.933391 9.3501C-0.0999426 8.31676 -0.0166092 7.43343 0.125058 7.0001C0.266724 6.56676 0.716724 5.8001 2.15006 5.55843L4.80839 5.11676C5.05839 5.0751 5.41672 4.80843 5.52506 4.58343L7.00006 1.64176C7.66672 0.300098 8.54172 0.100098 9.00006 0.100098C9.45839 0.100098 10.3334 0.300098 11.0001 1.64176L12.4667 4.5751C12.5834 4.8001 12.9417 5.06676 13.1917 5.10843L15.8501 5.5501C17.2917 5.79176 17.7417 6.55843 17.8751 6.99176C18.0084 7.4251 18.0917 8.30843 17.0667 9.34176L15.0001 11.4168C14.8001 11.6168 14.6751 12.0668 14.7334 12.3418L15.3251 14.9001C15.7084 16.5668 15.1167 17.2918 14.7334 17.5751C14.5251 17.7251 14.1917 17.8918 13.7167 17.8918ZM9.00006 14.4918C9.40839 14.4918 9.81672 14.5918 10.1417 14.7834L12.6334 16.2584C13.3584 16.6918 13.8167 16.6918 13.9917 16.5668C14.1667 16.4418 14.2917 16.0001 14.1084 15.1834L13.5167 12.6251C13.3584 11.9334 13.6167 11.0418 14.1167 10.5334L16.1834 8.46676C16.5917 8.05843 16.7751 7.65843 16.6917 7.38343C16.6001 7.10843 16.2167 6.88343 15.6501 6.79176L12.9917 6.3501C12.3501 6.24176 11.6501 5.7251 11.3584 5.14176L9.89172 2.20843C9.62506 1.6751 9.29172 1.35843 9.00006 1.35843C8.70839 1.35843 8.37506 1.6751 8.11672 2.20843L6.64172 5.14176C6.35006 5.7251 5.65006 6.24176 5.00839 6.3501L2.35839 6.79176C1.79172 6.88343 1.40839 7.10843 1.31672 7.38343C1.22506 7.65843 1.41672 8.06676 1.82506 8.46676L3.89172 10.5334C4.39172 11.0334 4.65006 11.9334 4.49172 12.6251L3.90006 15.1834C3.70839 16.0084 3.84172 16.4418 4.01672 16.5668C4.19172 16.6918 4.64172 16.6834 5.37506 16.2584L7.86672 14.7834C8.18339 14.5918 8.59172 14.4918 9.00006 14.4918Z" fill="#FFC700"/>
</svg>
