<svg width="20" height="21" viewBox="0 0 20 21" fill="none" xmlns="http://www.w3.org/2000/svg">
<path d="M9.99984 19.4584C5.05817 19.4584 1.0415 15.4417 1.0415 10.5001C1.0415 5.55841 5.05817 1.54175 9.99984 1.54175C14.9415 1.54175 18.9582 5.55841 18.9582 10.5001C18.9582 15.4417 14.9415 19.4584 9.99984 19.4584ZM9.99984 2.79175C5.74984 2.79175 2.2915 6.25008 2.2915 10.5001C2.2915 14.7501 5.74984 18.2084 9.99984 18.2084C14.2498 18.2084 17.7082 14.7501 17.7082 10.5001C17.7082 6.25008 14.2498 2.79175 9.99984 2.79175Z" fill="#68B900"/>
<path d="M8.8167 13.4834C8.65003 13.4834 8.4917 13.4167 8.37503 13.3001L6.0167 10.9417C5.77503 10.7001 5.77503 10.3001 6.0167 10.0584C6.25837 9.81675 6.65837 9.81675 6.90003 10.0584L8.8167 11.9751L13.1 7.69175C13.3417 7.45008 13.7417 7.45008 13.9834 7.69175C14.225 7.93341 14.225 8.33341 13.9834 8.57508L9.25837 13.3001C9.1417 13.4167 8.98337 13.4834 8.8167 13.4834Z" fill="#68B900"/>
</svg>
