<svg width="20" height="20" viewBox="0 0 20 20" fill="none" xmlns="http://www.w3.org/2000/svg">
<path d="M7.50003 14.7917C7.15837 14.7917 6.87503 14.5084 6.87503 14.1667V10.6751L6.27503 11.2751C6.03337 11.5167 5.63337 11.5167 5.3917 11.2751C5.15003 11.0334 5.15003 10.6334 5.3917 10.3917L7.05837 8.72507C7.23337 8.55007 7.50837 8.49174 7.7417 8.59174C7.97503 8.68341 8.12503 8.91674 8.12503 9.16674V14.1667C8.12503 14.5084 7.8417 14.7917 7.50003 14.7917Z" fill="#EF3E3E"/>
<path d="M9.16654 11.4583C9.0082 11.4583 8.84987 11.4 8.72487 11.275L7.0582 9.60828C6.81654 9.36662 6.81654 8.96662 7.0582 8.72495C7.29987 8.48328 7.69987 8.48328 7.94154 8.72495L9.6082 10.3916C9.84987 10.6333 9.84987 11.0333 9.6082 11.275C9.4832 11.4 9.32487 11.4583 9.16654 11.4583Z" fill="#EF3E3E"/>
<path d="M12.4998 18.9584H7.49984C2.97484 18.9584 1.0415 17.0251 1.0415 12.5001V7.50008C1.0415 2.97508 2.97484 1.04175 7.49984 1.04175H11.6665C12.0082 1.04175 12.2915 1.32508 12.2915 1.66675C12.2915 2.00841 12.0082 2.29175 11.6665 2.29175H7.49984C3.65817 2.29175 2.2915 3.65841 2.2915 7.50008V12.5001C2.2915 16.3417 3.65817 17.7084 7.49984 17.7084H12.4998C16.3415 17.7084 17.7082 16.3417 17.7082 12.5001V8.33342C17.7082 7.99175 17.9915 7.70842 18.3332 7.70842C18.6748 7.70842 18.9582 7.99175 18.9582 8.33342V12.5001C18.9582 17.0251 17.0248 18.9584 12.4998 18.9584Z" fill="#EF3E3E"/>
<path d="M18.3332 8.95841H14.9998C12.1498 8.95841 11.0415 7.85007 11.0415 5.00007V1.66674C11.0415 1.41674 11.1915 1.18341 11.4248 1.09174C11.6582 0.991739 11.9248 1.05007 12.1082 1.22507L18.7748 7.89174C18.9498 8.06674 19.0082 8.34174 18.9082 8.57507C18.8082 8.8084 18.5832 8.95841 18.3332 8.95841ZM12.2915 3.17507V5.00007C12.2915 7.15007 12.8498 7.70841 14.9998 7.70841H16.8248L12.2915 3.17507Z" fill="#EF3E3E"/>
</svg>
