<svg width="21" height="20" viewBox="0 0 21 20" fill="none" xmlns="http://www.w3.org/2000/svg">
<path d="M8 14.7917C7.91667 14.7917 7.84167 14.7751 7.75833 14.7417C7.525 14.6501 7.375 14.4167 7.375 14.1667V9.16675C7.375 8.82508 7.65833 8.54175 8 8.54175C8.34167 8.54175 8.625 8.82508 8.625 9.16675V12.6584L9.225 12.0584C9.46667 11.8167 9.86667 11.8167 10.1083 12.0584C10.35 12.3001 10.35 12.7001 10.1083 12.9417L8.44167 14.6084C8.325 14.7251 8.15833 14.7917 8 14.7917Z" fill="white"/>
<path d="M8.00003 14.7918C7.8417 14.7918 7.68337 14.7334 7.55837 14.6084L5.8917 12.9418C5.65003 12.7001 5.65003 12.3001 5.8917 12.0584C6.13337 11.8168 6.53337 11.8168 6.77503 12.0584L8.4417 13.7251C8.68337 13.9668 8.68337 14.3668 8.4417 14.6084C8.3167 14.7334 8.15837 14.7918 8.00003 14.7918Z" fill="white"/>
<path d="M12.9998 18.9584H7.99984C3.47484 18.9584 1.5415 17.0251 1.5415 12.5001V7.50008C1.5415 2.97508 3.47484 1.04175 7.99984 1.04175H12.1665C12.5082 1.04175 12.7915 1.32508 12.7915 1.66675C12.7915 2.00841 12.5082 2.29175 12.1665 2.29175H7.99984C4.15817 2.29175 2.7915 3.65841 2.7915 7.50008V12.5001C2.7915 16.3417 4.15817 17.7084 7.99984 17.7084H12.9998C16.8415 17.7084 18.2082 16.3417 18.2082 12.5001V8.33342C18.2082 7.99175 18.4915 7.70842 18.8332 7.70842C19.1748 7.70842 19.4582 7.99175 19.4582 8.33342V12.5001C19.4582 17.0251 17.5248 18.9584 12.9998 18.9584Z" fill="white"/>
<path d="M18.8332 8.95841H15.4998C12.6498 8.95841 11.5415 7.85007 11.5415 5.00007V1.66674C11.5415 1.41674 11.6915 1.18341 11.9248 1.09174C12.1582 0.991739 12.4248 1.05007 12.6082 1.22507L19.2748 7.89174C19.4498 8.06674 19.5082 8.34174 19.4082 8.57507C19.3082 8.8084 19.0832 8.95841 18.8332 8.95841ZM12.7915 3.17507V5.00007C12.7915 7.15007 13.3498 7.70841 15.4998 7.70841H17.3248L12.7915 3.17507Z" fill="white"/>
</svg>
