<svg width="42" height="42" viewBox="0 0 42 42" fill="none" xmlns="http://www.w3.org/2000/svg">
<circle cx="21" cy="21" r="20.5" stroke="white"/>
<path d="M21.0002 21.6251C18.3585 21.6251 16.2085 19.4751 16.2085 16.8334C16.2085 14.1917 18.3585 12.0417 21.0002 12.0417C23.6418 12.0417 25.7918 14.1917 25.7918 16.8334C25.7918 19.4751 23.6418 21.6251 21.0002 21.6251ZM21.0002 13.2917C19.0502 13.2917 17.4585 14.8834 17.4585 16.8334C17.4585 18.7834 19.0502 20.3751 21.0002 20.3751C22.9502 20.3751 24.5418 18.7834 24.5418 16.8334C24.5418 14.8834 22.9502 13.2917 21.0002 13.2917Z" fill="white"/>
<path d="M28.1585 29.9583C27.8168 29.9583 27.5335 29.675 27.5335 29.3333C27.5335 26.4583 24.6001 24.125 21.0001 24.125C17.4001 24.125 14.4668 26.4583 14.4668 29.3333C14.4668 29.675 14.1835 29.9583 13.8418 29.9583C13.5001 29.9583 13.2168 29.675 13.2168 29.3333C13.2168 25.775 16.7085 22.875 21.0001 22.875C25.2918 22.875 28.7835 25.775 28.7835 29.3333C28.7835 29.675 28.5001 29.9583 28.1585 29.9583Z" fill="white"/>
</svg>
