<svg width="60" height="60" viewBox="0 0 60 60" fill="none" xmlns="http://www.w3.org/2000/svg">
<path d="M30 34.375C28.975 34.375 28.125 33.525 28.125 32.5V19.375C28.125 18.35 28.975 17.5 30 17.5C31.025 17.5 31.875 18.35 31.875 19.375V32.5C31.875 33.525 31.025 34.375 30 34.375Z" fill="#EF3E3E"/>
<path d="M30 43.1251C29.325 43.1251 28.6999 42.8751 28.2249 42.4001C27.9999 42.1501 27.825 41.8751 27.675 41.5751C27.55 41.2751 27.5 40.9501 27.5 40.6251C27.5 39.9751 27.7749 39.325 28.2249 38.85C29.1499 37.925 30.8501 37.925 31.7751 38.85C32.2251 39.325 32.5 39.9751 32.5 40.6251C32.5 40.9501 32.425 41.2751 32.3 41.5751C32.175 41.8751 32.0001 42.1501 31.7751 42.4001C31.3001 42.8751 30.675 43.1251 30 43.1251Z" fill="#EF3E3E"/>
<path d="M30.0005 56.8748C28.3255 56.8748 26.6254 56.4497 25.1254 55.5747L10.2754 46.9997C7.27542 45.2497 5.40039 42.0247 5.40039 38.5497V21.4498C5.40039 17.9748 7.27542 14.7498 10.2754 12.9998L25.1254 4.4248C28.1254 2.6748 31.8505 2.6748 34.8755 4.4248L49.7255 12.9998C52.7255 14.7498 54.6005 17.9748 54.6005 21.4498V38.5497C54.6005 42.0247 52.7255 45.2497 49.7255 46.9997L34.8755 55.5747C33.3755 56.4497 31.6755 56.8748 30.0005 56.8748ZM30.0005 6.87476C28.9755 6.87476 27.9254 7.14977 27.0004 7.67477L12.1504 16.2498C10.3004 17.3248 9.15039 19.2998 9.15039 21.4498V38.5497C9.15039 40.6747 10.3004 42.6748 12.1504 43.7498L27.0004 52.3247C28.8504 53.3997 31.1505 53.3997 32.9755 52.3247L47.8255 43.7498C49.6755 42.6748 50.8255 40.6997 50.8255 38.5497V21.4498C50.8255 19.3248 49.6755 17.3248 47.8255 16.2498L32.9755 7.67477C32.0755 7.14977 31.0255 6.87476 30.0005 6.87476Z" fill="#EF3E3E"/>
</svg>
